<svg width="96" height="96" xmlns="http://www.w3.org/2000/svg" xmlns:xlink="http://www.w3.org/1999/xlink" xml:space="preserve" overflow="hidden"><defs><clipPath id="clip0"><rect x="923" y="184" width="96" height="96"/></clipPath></defs><g clip-path="url(#clip0)" transform="translate(-923 -184)"><path d="M980.055 213.969 978.602 215.576C991.417 219.92 998.283 233.83 993.938 246.645 989.594 259.459 975.684 266.326 962.869 261.981 950.055 257.637 943.188 243.727 947.533 230.912 949.98 223.692 955.649 218.023 962.869 215.576L961.416 213.969C947.716 219.116 940.781 234.395 945.928 248.095 951.075 261.796 966.354 268.73 980.055 263.583 993.756 258.436 1000.69 243.157 995.543 229.457 992.855 222.302 987.209 216.657 980.055 213.969Z"/><path d="M984.586 204.487 979.259 198.487 962.212 198.487 956.885 204.487 970.736 219.8ZM965.613 205.487 968.59 214.417C968.598 214.442 968.59 214.447 968.573 214.427L960.502 205.504C960.498 205.5 960.498 205.494 960.503 205.49 960.504 205.488 960.507 205.488 960.509 205.488ZM972.18 200.559 973.353 203.487 968.099 203.487 969.272 200.559ZM980.97 205.504 972.867 214.462C972.85 214.482 972.842 214.477 972.851 214.452L975.839 205.487 980.963 205.487C980.968 205.488 980.972 205.492 980.972 205.498 980.972 205.5 980.971 205.502 980.969 205.504ZM973.731 205.487 970.735 214.473C970.73 214.489 970.721 214.489 970.716 214.473L967.721 205.487ZM981.002 203.487 975.507 203.487 974.305 200.487 978.36 200.487 981.009 203.471C981.013 203.475 981.012 203.481 981.008 203.485 981.006 203.486 981.004 203.487 981.001 203.487ZM963.112 200.487 967.146 200.487 965.945 203.487 960.47 203.487C960.464 203.487 960.46 203.483 960.46 203.478 960.46 203.475 960.461 203.473 960.463 203.471Z"/></g></svg>