<svg width="96" height="96" xmlns="http://www.w3.org/2000/svg" xmlns:xlink="http://www.w3.org/1999/xlink" xml:space="preserve" overflow="hidden"><defs><clipPath id="clip0"><rect x="1050" y="162" width="96" height="96"/></clipPath></defs><g clip-path="url(#clip0)" transform="translate(-1050 -162)"><path d="M1120.87 190.53C1111.2 190.53 1104.13 197.4 1098 204.47 1091.87 197.4 1084.8 190.53 1075.13 190.53 1064.38 190.53 1055.66 199.247 1055.66 210 1055.66 220.753 1064.38 229.47 1075.13 229.47 1084.77 229.47 1091.6 222.79 1098 215.39 1104.34 222.74 1111.2 229.47 1120.87 229.47 1131.62 229.47 1140.34 220.753 1140.34 210 1140.34 199.247 1131.62 190.53 1120.87 190.53ZM1092 210.16C1085.75 217.32 1081 221.47 1075.13 221.47 1068.8 221.47 1063.66 216.335 1063.66 210 1063.66 203.665 1068.8 198.53 1075.13 198.53 1081.05 198.53 1086.13 203 1091.96 209.71L1092.14 209.93ZM1120.87 221.47C1114.99 221.47 1110.08 217.14 1104.06 210.16L1103.86 209.93 1104.04 209.71C1109.86 203 1115 198.53 1120.87 198.53 1127.2 198.53 1132.34 203.665 1132.34 210 1132.34 216.335 1127.2 221.47 1120.87 221.47Z"/></g></svg>