<svg width="96" height="96" xmlns="http://www.w3.org/2000/svg" xmlns:xlink="http://www.w3.org/1999/xlink" xml:space="preserve" overflow="hidden"><defs><clipPath id="clip0"><rect x="1050" y="32" width="96" height="96"/></clipPath></defs><g clip-path="url(#clip0)" transform="translate(-1050 -32)"><path d="M1102 115 1100 115 1100 90.955C1104.13 90.7499 1108.24 90.1586 1112.26 89.189 1112.7 89.0824 1113.01 88.6841 1113 88.23 1112.91 81.373 1111.6 75.676 1108.32 72.33 1104.92 68.862 1106.36 63.797 1109.79 58.997 1112.57 55.102 1112.25 49.626 1112.03 47.697 1111.98 47.2758 1111.67 46.9321 1111.26 46.842L1105.54 45.562C1104 45.2191 1102.8 43.9995 1102.49 42.45L1102.12 39.859C1102.05 39.3662 1101.63 39 1101.13 39L1100.22 39C1101.33 37.7734 1101.24 35.8761 1100.02 34.7623 1098.79 33.6485 1096.89 33.7399 1095.78 34.9666 1094.74 36.1104 1094.74 37.8561 1095.78 39L1094.87 39C1094.37 39 1093.95 39.3662 1093.88 39.859L1093.51 42.45C1093.2 44.0004 1092.01 45.2225 1090.46 45.568L1084.75 46.848C1084.33 46.9381 1084.02 47.2818 1083.97 47.703 1083.75 49.629 1083.43 55.103 1086.21 59.003 1089.64 63.803 1091.08 68.868 1087.68 72.336 1084.41 75.679 1083.09 81.376 1083.01 88.236 1083 88.6886 1083.3 89.0864 1083.74 89.195 1087.76 90.1626 1091.87 90.7518 1096 90.955L1096 115 1094 115C1087.93 115.007 1083.01 119.928 1083 126L1087 126C1087.01 122.136 1090.14 119.005 1094 119L1096 119 1096 126 1100 126 1100 119 1102 119C1105.86 119.005 1108.99 122.136 1109 126L1113 126C1112.99 119.928 1108.07 115.007 1102 115Z"/></g></svg>